<mxfile host="app.diagrams.net" agent="Mozilla/5.0 (Windows NT 10.0; Win64; x64) AppleWebKit/537.36 (KHTML, like Gecko) Chrome/141.0.0.0 Safari/537.36" version="28.2.1">
  <diagram name="Page-1" id="xu7Ynh6FHKtOzfZeT0iI">
    <mxGraphModel dx="3021" dy="2312" grid="1" gridSize="10" guides="1" tooltips="1" connect="1" arrows="1" fold="1" page="1" pageScale="1" pageWidth="827" pageHeight="1169" math="0" shadow="1" adaptiveColors="none">
      <root>
        <mxCell id="0" />
        <mxCell id="1" parent="0" />
        <mxCell id="mXfEpnh7-dO3a9mtvA-y-109" value="" style="rounded=0;whiteSpace=wrap;html=1;" vertex="1" parent="1">
          <mxGeometry x="-30" y="-110" width="1700" height="1440" as="geometry" />
        </mxCell>
        <mxCell id="mXfEpnh7-dO3a9mtvA-y-9" value="Availability Zone" style="fillColor=none;strokeColor=#147EBA;dashed=1;verticalAlign=top;fontStyle=0;fontColor=#147EBA;whiteSpace=wrap;html=1;movable=1;resizable=1;rotatable=1;deletable=1;editable=1;locked=0;connectable=1;" vertex="1" parent="1">
          <mxGeometry x="199" y="241" width="200" height="400" as="geometry" />
        </mxCell>
        <mxCell id="mXfEpnh7-dO3a9mtvA-y-17" value="Public subnet" style="points=[[0,0],[0.25,0],[0.5,0],[0.75,0],[1,0],[1,0.25],[1,0.5],[1,0.75],[1,1],[0.75,1],[0.5,1],[0.25,1],[0,1],[0,0.75],[0,0.5],[0,0.25]];outlineConnect=0;gradientColor=none;html=1;whiteSpace=wrap;fontSize=12;fontStyle=0;container=1;pointerEvents=0;collapsible=0;recursiveResize=0;shape=mxgraph.aws4.group;grIcon=mxgraph.aws4.group_security_group;grStroke=0;strokeColor=#7AA116;fillColor=#F2F6E8;verticalAlign=top;align=left;spacingLeft=30;fontColor=#248814;dashed=0;" vertex="1" parent="1">
          <mxGeometry x="220" y="280" width="150" height="160" as="geometry" />
        </mxCell>
        <mxCell id="mXfEpnh7-dO3a9mtvA-y-21" value="" style="aspect=fixed;pointerEvents=1;shadow=0;dashed=0;html=1;strokeColor=none;labelPosition=center;verticalLabelPosition=bottom;verticalAlign=top;align=center;fillColor=#00188D;shape=mxgraph.mscae.enterprise.application;" vertex="1" parent="mXfEpnh7-dO3a9mtvA-y-17">
          <mxGeometry x="10" y="40" width="50" height="34" as="geometry" />
        </mxCell>
        <mxCell id="mXfEpnh7-dO3a9mtvA-y-1" value="" style="shape=mxgraph.ibm.box;prType=vpc;fontStyle=0;verticalAlign=top;align=left;spacingLeft=32;spacingTop=4;fillColor=none;rounded=0;whiteSpace=wrap;html=1;strokeColor=#4376BB;strokeWidth=2;dashed=0;container=0;spacing=-4;collapsible=0;expand=0;recursiveResize=0;" vertex="1" parent="1">
          <mxGeometry x="148.46" y="200" width="531.54" height="480" as="geometry" />
        </mxCell>
        <mxCell id="mXfEpnh7-dO3a9mtvA-y-14" value="AWS Cloud" style="points=[[0,0],[0.25,0],[0.5,0],[0.75,0],[1,0],[1,0.25],[1,0.5],[1,0.75],[1,1],[0.75,1],[0.5,1],[0.25,1],[0,1],[0,0.75],[0,0.5],[0,0.25]];outlineConnect=0;gradientColor=none;html=1;whiteSpace=wrap;fontSize=12;fontStyle=0;container=1;pointerEvents=0;collapsible=0;recursiveResize=0;shape=mxgraph.aws4.group;grIcon=mxgraph.aws4.group_aws_cloud_alt;strokeColor=#232F3E;fillColor=none;verticalAlign=top;align=left;spacingLeft=30;fontColor=#232F3E;dashed=0;" vertex="1" parent="1">
          <mxGeometry x="40" y="80" width="1550" height="720" as="geometry" />
        </mxCell>
        <mxCell id="mXfEpnh7-dO3a9mtvA-y-15" value="AWS Account" style="points=[[0,0],[0.25,0],[0.5,0],[0.75,0],[1,0],[1,0.25],[1,0.5],[1,0.75],[1,1],[0.75,1],[0.5,1],[0.25,1],[0,1],[0,0.75],[0,0.5],[0,0.25]];outlineConnect=0;gradientColor=none;html=1;whiteSpace=wrap;fontSize=12;fontStyle=0;container=0;pointerEvents=0;collapsible=0;recursiveResize=0;shape=mxgraph.aws4.group;grIcon=mxgraph.aws4.group_account;strokeColor=#CD2264;fillColor=none;verticalAlign=top;align=left;spacingLeft=30;fontColor=#CD2264;dashed=0;" vertex="1" parent="1">
          <mxGeometry x="80" y="120" width="1440" height="649" as="geometry" />
        </mxCell>
        <mxCell id="mXfEpnh7-dO3a9mtvA-y-19" value="Private subnet" style="points=[[0,0],[0.25,0],[0.5,0],[0.75,0],[1,0],[1,0.25],[1,0.5],[1,0.75],[1,1],[0.75,1],[0.5,1],[0.25,1],[0,1],[0,0.75],[0,0.5],[0,0.25]];outlineConnect=0;gradientColor=none;html=1;whiteSpace=wrap;fontSize=12;fontStyle=0;container=1;pointerEvents=0;collapsible=0;recursiveResize=0;shape=mxgraph.aws4.group;grIcon=mxgraph.aws4.group_security_group;grStroke=0;strokeColor=#00A4A6;fillColor=#E6F6F7;verticalAlign=top;align=left;spacingLeft=30;fontColor=#147EBA;dashed=0;" vertex="1" parent="1">
          <mxGeometry x="220" y="471" width="149" height="150" as="geometry" />
        </mxCell>
        <mxCell id="mXfEpnh7-dO3a9mtvA-y-20" value="" style="image;aspect=fixed;perimeter=ellipsePerimeter;html=1;align=center;shadow=0;dashed=0;spacingTop=3;image=img/lib/active_directory/database.svg;" vertex="1" parent="mXfEpnh7-dO3a9mtvA-y-19">
          <mxGeometry x="49.5" y="39" width="50" height="37" as="geometry" />
        </mxCell>
        <mxCell id="mXfEpnh7-dO3a9mtvA-y-27" value="Availability Zone" style="fillColor=none;strokeColor=#147EBA;dashed=1;verticalAlign=top;fontStyle=0;fontColor=#147EBA;whiteSpace=wrap;html=1;movable=1;resizable=1;rotatable=1;deletable=1;editable=1;locked=0;connectable=1;" vertex="1" parent="1">
          <mxGeometry x="440" y="241" width="200" height="400" as="geometry" />
        </mxCell>
        <mxCell id="mXfEpnh7-dO3a9mtvA-y-29" value="Private subnet" style="points=[[0,0],[0.25,0],[0.5,0],[0.75,0],[1,0],[1,0.25],[1,0.5],[1,0.75],[1,1],[0.75,1],[0.5,1],[0.25,1],[0,1],[0,0.75],[0,0.5],[0,0.25]];outlineConnect=0;gradientColor=none;html=1;whiteSpace=wrap;fontSize=12;fontStyle=0;container=1;pointerEvents=0;collapsible=0;recursiveResize=0;shape=mxgraph.aws4.group;grIcon=mxgraph.aws4.group_security_group;grStroke=0;strokeColor=#00A4A6;fillColor=#E6F6F7;verticalAlign=top;align=left;spacingLeft=30;fontColor=#147EBA;dashed=0;" vertex="1" parent="1">
          <mxGeometry x="460" y="471" width="149" height="150" as="geometry" />
        </mxCell>
        <mxCell id="mXfEpnh7-dO3a9mtvA-y-30" value="" style="image;aspect=fixed;perimeter=ellipsePerimeter;html=1;align=center;shadow=0;dashed=0;spacingTop=3;image=img/lib/active_directory/database.svg;" vertex="1" parent="1">
          <mxGeometry x="509.5" y="520" width="50" height="37" as="geometry" />
        </mxCell>
        <mxCell id="mXfEpnh7-dO3a9mtvA-y-31" value="Public subnet" style="points=[[0,0],[0.25,0],[0.5,0],[0.75,0],[1,0],[1,0.25],[1,0.5],[1,0.75],[1,1],[0.75,1],[0.5,1],[0.25,1],[0,1],[0,0.75],[0,0.5],[0,0.25]];outlineConnect=0;gradientColor=none;html=1;whiteSpace=wrap;fontSize=12;fontStyle=0;container=1;pointerEvents=0;collapsible=0;recursiveResize=0;shape=mxgraph.aws4.group;grIcon=mxgraph.aws4.group_security_group;grStroke=0;strokeColor=#7AA116;fillColor=#F2F6E8;verticalAlign=top;align=left;spacingLeft=30;fontColor=#248814;dashed=0;" vertex="1" parent="1">
          <mxGeometry x="460" y="280" width="150" height="160" as="geometry" />
        </mxCell>
        <mxCell id="mXfEpnh7-dO3a9mtvA-y-32" value="" style="image;aspect=fixed;html=1;points=[];align=center;fontSize=12;image=img/lib/azure2/compute/Azure_Spring_Cloud.svg;" vertex="1" parent="1">
          <mxGeometry x="500.5" y="320" width="68" height="68" as="geometry" />
        </mxCell>
        <mxCell id="mXfEpnh7-dO3a9mtvA-y-24" value="" style="aspect=fixed;pointerEvents=1;shadow=0;dashed=0;html=1;strokeColor=none;labelPosition=center;verticalLabelPosition=bottom;verticalAlign=top;align=center;fillColor=#00188D;shape=mxgraph.mscae.enterprise.application;" vertex="1" parent="1">
          <mxGeometry x="300" y="370" width="50" height="34" as="geometry" />
        </mxCell>
        <mxCell id="mXfEpnh7-dO3a9mtvA-y-33" value="Region" style="shape=mxgraph.ibm.box;prType=region;fontStyle=0;verticalAlign=top;align=left;spacingLeft=32;spacingTop=4;fillColor=none;rounded=0;whiteSpace=wrap;html=1;strokeColor=#919191;strokeWidth=2;dashed=0;container=0;spacing=-4;collapsible=0;expand=0;recursiveResize=0;movable=1;resizable=1;rotatable=1;deletable=1;editable=1;locked=0;connectable=1;" vertex="1" parent="1">
          <mxGeometry x="850" y="160" width="598.46" height="560" as="geometry" />
        </mxCell>
        <mxCell id="mXfEpnh7-dO3a9mtvA-y-46" value="Availability Zone" style="fillColor=none;strokeColor=#147EBA;dashed=1;verticalAlign=top;fontStyle=0;fontColor=#147EBA;whiteSpace=wrap;html=1;movable=1;resizable=1;rotatable=1;deletable=1;editable=1;locked=0;connectable=1;" vertex="1" parent="1">
          <mxGeometry x="939.54" y="241" width="200" height="400" as="geometry" />
        </mxCell>
        <mxCell id="mXfEpnh7-dO3a9mtvA-y-47" value="Public subnet" style="points=[[0,0],[0.25,0],[0.5,0],[0.75,0],[1,0],[1,0.25],[1,0.5],[1,0.75],[1,1],[0.75,1],[0.5,1],[0.25,1],[0,1],[0,0.75],[0,0.5],[0,0.25]];outlineConnect=0;gradientColor=none;html=1;whiteSpace=wrap;fontSize=12;fontStyle=0;container=1;pointerEvents=0;collapsible=0;recursiveResize=0;shape=mxgraph.aws4.group;grIcon=mxgraph.aws4.group_security_group;grStroke=0;strokeColor=#7AA116;fillColor=#F2F6E8;verticalAlign=top;align=left;spacingLeft=30;fontColor=#248814;dashed=0;" vertex="1" parent="1">
          <mxGeometry x="960.54" y="280" width="150" height="160" as="geometry" />
        </mxCell>
        <mxCell id="mXfEpnh7-dO3a9mtvA-y-48" value="" style="aspect=fixed;pointerEvents=1;shadow=0;dashed=0;html=1;strokeColor=none;labelPosition=center;verticalLabelPosition=bottom;verticalAlign=top;align=center;fillColor=#00188D;shape=mxgraph.mscae.enterprise.application;" vertex="1" parent="mXfEpnh7-dO3a9mtvA-y-47">
          <mxGeometry x="10" y="40" width="50" height="34" as="geometry" />
        </mxCell>
        <mxCell id="mXfEpnh7-dO3a9mtvA-y-49" value="" style="shape=mxgraph.ibm.box;prType=vpc;fontStyle=0;verticalAlign=top;align=left;spacingLeft=32;spacingTop=4;fillColor=none;rounded=0;whiteSpace=wrap;html=1;strokeColor=#4376BB;strokeWidth=2;dashed=0;container=0;spacing=-4;collapsible=0;expand=0;recursiveResize=0;" vertex="1" parent="1">
          <mxGeometry x="889" y="200" width="531.54" height="480" as="geometry" />
        </mxCell>
        <mxCell id="mXfEpnh7-dO3a9mtvA-y-50" value="Private subnet" style="points=[[0,0],[0.25,0],[0.5,0],[0.75,0],[1,0],[1,0.25],[1,0.5],[1,0.75],[1,1],[0.75,1],[0.5,1],[0.25,1],[0,1],[0,0.75],[0,0.5],[0,0.25]];outlineConnect=0;gradientColor=none;html=1;whiteSpace=wrap;fontSize=12;fontStyle=0;container=1;pointerEvents=0;collapsible=0;recursiveResize=0;shape=mxgraph.aws4.group;grIcon=mxgraph.aws4.group_security_group;grStroke=0;strokeColor=#00A4A6;fillColor=#E6F6F7;verticalAlign=top;align=left;spacingLeft=30;fontColor=#147EBA;dashed=0;" vertex="1" parent="1">
          <mxGeometry x="960.54" y="471" width="149" height="150" as="geometry" />
        </mxCell>
        <mxCell id="mXfEpnh7-dO3a9mtvA-y-51" value="" style="image;aspect=fixed;perimeter=ellipsePerimeter;html=1;align=center;shadow=0;dashed=0;spacingTop=3;image=img/lib/active_directory/database.svg;" vertex="1" parent="mXfEpnh7-dO3a9mtvA-y-50">
          <mxGeometry x="49.5" y="39" width="50" height="37" as="geometry" />
        </mxCell>
        <mxCell id="mXfEpnh7-dO3a9mtvA-y-52" value="Availability Zone" style="fillColor=none;strokeColor=#147EBA;dashed=1;verticalAlign=top;fontStyle=0;fontColor=#147EBA;whiteSpace=wrap;html=1;movable=1;resizable=1;rotatable=1;deletable=1;editable=1;locked=0;connectable=1;" vertex="1" parent="1">
          <mxGeometry x="1180.54" y="241" width="200" height="400" as="geometry" />
        </mxCell>
        <mxCell id="mXfEpnh7-dO3a9mtvA-y-53" value="Private subnet" style="points=[[0,0],[0.25,0],[0.5,0],[0.75,0],[1,0],[1,0.25],[1,0.5],[1,0.75],[1,1],[0.75,1],[0.5,1],[0.25,1],[0,1],[0,0.75],[0,0.5],[0,0.25]];outlineConnect=0;gradientColor=none;html=1;whiteSpace=wrap;fontSize=12;fontStyle=0;container=1;pointerEvents=0;collapsible=0;recursiveResize=0;shape=mxgraph.aws4.group;grIcon=mxgraph.aws4.group_security_group;grStroke=0;strokeColor=#00A4A6;fillColor=#E6F6F7;verticalAlign=top;align=left;spacingLeft=30;fontColor=#147EBA;dashed=0;" vertex="1" parent="1">
          <mxGeometry x="1200.54" y="471" width="149" height="150" as="geometry" />
        </mxCell>
        <mxCell id="mXfEpnh7-dO3a9mtvA-y-54" value="" style="image;aspect=fixed;perimeter=ellipsePerimeter;html=1;align=center;shadow=0;dashed=0;spacingTop=3;image=img/lib/active_directory/database.svg;" vertex="1" parent="1">
          <mxGeometry x="1250.04" y="520" width="50" height="37" as="geometry" />
        </mxCell>
        <mxCell id="mXfEpnh7-dO3a9mtvA-y-55" value="Public subnet" style="points=[[0,0],[0.25,0],[0.5,0],[0.75,0],[1,0],[1,0.25],[1,0.5],[1,0.75],[1,1],[0.75,1],[0.5,1],[0.25,1],[0,1],[0,0.75],[0,0.5],[0,0.25]];outlineConnect=0;gradientColor=none;html=1;whiteSpace=wrap;fontSize=12;fontStyle=0;container=1;pointerEvents=0;collapsible=0;recursiveResize=0;shape=mxgraph.aws4.group;grIcon=mxgraph.aws4.group_security_group;grStroke=0;strokeColor=#7AA116;fillColor=#F2F6E8;verticalAlign=top;align=left;spacingLeft=30;fontColor=#248814;dashed=0;" vertex="1" parent="1">
          <mxGeometry x="1200.54" y="280" width="150" height="160" as="geometry" />
        </mxCell>
        <mxCell id="mXfEpnh7-dO3a9mtvA-y-56" value="" style="image;aspect=fixed;html=1;points=[];align=center;fontSize=12;image=img/lib/azure2/compute/Azure_Spring_Cloud.svg;" vertex="1" parent="1">
          <mxGeometry x="1241.04" y="320" width="68" height="68" as="geometry" />
        </mxCell>
        <mxCell id="mXfEpnh7-dO3a9mtvA-y-57" value="" style="aspect=fixed;pointerEvents=1;shadow=0;dashed=0;html=1;strokeColor=none;labelPosition=center;verticalLabelPosition=bottom;verticalAlign=top;align=center;fillColor=#00188D;shape=mxgraph.mscae.enterprise.application;" vertex="1" parent="1">
          <mxGeometry x="1040.54" y="370" width="50" height="34" as="geometry" />
        </mxCell>
        <mxCell id="mXfEpnh7-dO3a9mtvA-y-58" value="Region" style="shape=mxgraph.ibm.box;prType=region;fontStyle=0;verticalAlign=top;align=left;spacingLeft=32;spacingTop=4;fillColor=none;rounded=0;whiteSpace=wrap;html=1;strokeColor=#919191;strokeWidth=2;dashed=0;container=0;spacing=-4;collapsible=0;expand=0;recursiveResize=0;movable=1;resizable=1;rotatable=1;deletable=1;editable=1;locked=0;connectable=1;" vertex="1" parent="1">
          <mxGeometry x="120" y="159" width="598.46" height="560" as="geometry" />
        </mxCell>
        <mxCell id="mXfEpnh7-dO3a9mtvA-y-66" style="edgeStyle=orthogonalEdgeStyle;rounded=0;orthogonalLoop=1;jettySize=auto;html=1;fontFamily=Helvetica;fontSize=12;fontColor=default;fontStyle=0;resizable=1;" edge="1" parent="1" source="mXfEpnh7-dO3a9mtvA-y-61" target="mXfEpnh7-dO3a9mtvA-y-65">
          <mxGeometry relative="1" as="geometry" />
        </mxCell>
        <mxCell id="mXfEpnh7-dO3a9mtvA-y-68" style="edgeStyle=orthogonalEdgeStyle;rounded=0;orthogonalLoop=1;jettySize=auto;html=1;fontFamily=Helvetica;fontSize=12;fontColor=default;fontStyle=0;resizable=1;" edge="1" parent="1" source="mXfEpnh7-dO3a9mtvA-y-61" target="mXfEpnh7-dO3a9mtvA-y-67">
          <mxGeometry relative="1" as="geometry" />
        </mxCell>
        <mxCell id="mXfEpnh7-dO3a9mtvA-y-61" value="" style="html=1;verticalLabelPosition=bottom;align=center;labelBackgroundColor=#ffffff;verticalAlign=top;strokeWidth=2;strokeColor=#0080F0;shadow=0;dashed=0;shape=mxgraph.ios7.icons.user;rounded=0;spacingLeft=32;spacingTop=4;spacing=-4;fontFamily=Helvetica;fontSize=12;fontColor=default;fontStyle=0;resizable=1;fillColor=none;" vertex="1" parent="1">
          <mxGeometry x="690" y="-80" width="160" height="132" as="geometry" />
        </mxCell>
        <mxCell id="mXfEpnh7-dO3a9mtvA-y-63" value="PROD-ENV" style="text;html=1;align=center;verticalAlign=middle;whiteSpace=wrap;rounded=0;fontFamily=Helvetica;fontSize=12;fontStyle=0;resizable=1;fillColor=#f5f5f5;strokeColor=#666666;fontColor=#333333;" vertex="1" parent="1">
          <mxGeometry x="609" y="200" width="70" height="30" as="geometry" />
        </mxCell>
        <mxCell id="mXfEpnh7-dO3a9mtvA-y-64" value="DEV-ENV" style="text;html=1;align=center;verticalAlign=middle;whiteSpace=wrap;rounded=0;fontFamily=Helvetica;fontSize=12;fontStyle=0;resizable=1;fillColor=#f5f5f5;strokeColor=#666666;fontColor=#333333;" vertex="1" parent="1">
          <mxGeometry x="1349.54" y="200" width="70" height="30" as="geometry" />
        </mxCell>
        <mxCell id="mXfEpnh7-dO3a9mtvA-y-65" value="" style="outlineConnect=0;fontColor=#232F3E;gradientColor=none;fillColor=#8C4FFF;strokeColor=none;dashed=0;verticalLabelPosition=bottom;verticalAlign=top;align=center;html=1;fontSize=12;fontStyle=0;aspect=fixed;pointerEvents=1;shape=mxgraph.aws4.internet_gateway;rounded=0;strokeWidth=2;spacingLeft=32;spacingTop=4;spacing=-4;fontFamily=Helvetica;resizable=1;" vertex="1" parent="1">
          <mxGeometry x="390" y="180" width="48" height="48" as="geometry" />
        </mxCell>
        <mxCell id="mXfEpnh7-dO3a9mtvA-y-67" value="" style="outlineConnect=0;fontColor=#232F3E;gradientColor=none;fillColor=#8C4FFF;strokeColor=none;dashed=0;verticalLabelPosition=bottom;verticalAlign=top;align=center;html=1;fontSize=12;fontStyle=0;aspect=fixed;pointerEvents=1;shape=mxgraph.aws4.internet_gateway;rounded=0;strokeWidth=2;spacingLeft=32;spacingTop=4;spacing=-4;fontFamily=Helvetica;resizable=1;" vertex="1" parent="1">
          <mxGeometry x="1139.54" y="180" width="48" height="48" as="geometry" />
        </mxCell>
        <mxCell id="mXfEpnh7-dO3a9mtvA-y-69" value="NAT gateway" style="outlineConnect=0;fontColor=#232F3E;gradientColor=none;strokeColor=#232F3E;fillColor=#ffffff;dashed=0;verticalLabelPosition=bottom;verticalAlign=top;align=center;html=1;fontSize=12;fontStyle=0;aspect=fixed;shape=mxgraph.aws4.resourceIcon;resIcon=mxgraph.aws4.nat_gateway;rounded=0;strokeWidth=2;spacingLeft=32;spacingTop=4;spacing=-4;fontFamily=Helvetica;resizable=1;" vertex="1" parent="1">
          <mxGeometry x="960.54" y="410" width="30" height="30" as="geometry" />
        </mxCell>
        <mxCell id="mXfEpnh7-dO3a9mtvA-y-70" value="NAT gateway" style="outlineConnect=0;fontColor=#232F3E;gradientColor=none;strokeColor=#232F3E;fillColor=#ffffff;dashed=0;verticalLabelPosition=bottom;verticalAlign=top;align=center;html=1;fontSize=12;fontStyle=0;aspect=fixed;shape=mxgraph.aws4.resourceIcon;resIcon=mxgraph.aws4.nat_gateway;rounded=0;strokeWidth=2;spacingLeft=32;spacingTop=4;spacing=-4;fontFamily=Helvetica;resizable=1;" vertex="1" parent="1">
          <mxGeometry x="220" y="410" width="30" height="30" as="geometry" />
        </mxCell>
        <mxCell id="mXfEpnh7-dO3a9mtvA-y-71" value="NAT gateway" style="outlineConnect=0;fontColor=#232F3E;gradientColor=none;strokeColor=#232F3E;fillColor=#ffffff;dashed=0;verticalLabelPosition=bottom;verticalAlign=top;align=center;html=1;fontSize=12;fontStyle=0;aspect=fixed;shape=mxgraph.aws4.resourceIcon;resIcon=mxgraph.aws4.nat_gateway;rounded=0;strokeWidth=2;spacingLeft=32;spacingTop=4;spacing=-4;fontFamily=Helvetica;resizable=1;" vertex="1" parent="1">
          <mxGeometry x="460" y="410" width="30" height="30" as="geometry" />
        </mxCell>
        <mxCell id="mXfEpnh7-dO3a9mtvA-y-72" value="NAT gateway" style="outlineConnect=0;fontColor=#232F3E;gradientColor=none;strokeColor=#232F3E;fillColor=#ffffff;dashed=0;verticalLabelPosition=bottom;verticalAlign=top;align=center;html=1;fontSize=12;fontStyle=0;aspect=fixed;shape=mxgraph.aws4.resourceIcon;resIcon=mxgraph.aws4.nat_gateway;rounded=0;strokeWidth=2;spacingLeft=32;spacingTop=4;spacing=-4;fontFamily=Helvetica;resizable=1;" vertex="1" parent="1">
          <mxGeometry x="1200.54" y="410" width="30" height="30" as="geometry" />
        </mxCell>
        <mxCell id="mXfEpnh7-dO3a9mtvA-y-73" value="" style="outlineConnect=0;fontColor=#232F3E;gradientColor=none;fillColor=#8C4FFF;strokeColor=none;dashed=0;verticalLabelPosition=bottom;verticalAlign=top;align=center;html=1;fontSize=12;fontStyle=0;aspect=fixed;pointerEvents=1;shape=mxgraph.aws4.nat_gateway;rounded=0;strokeWidth=2;spacingLeft=32;spacingTop=4;spacing=-4;fontFamily=Helvetica;resizable=1;" vertex="1" parent="1">
          <mxGeometry x="199" y="960" width="78" height="78" as="geometry" />
        </mxCell>
        <mxCell id="mXfEpnh7-dO3a9mtvA-y-74" value="NAT" style="whiteSpace=wrap;html=1;shape=mxgraph.basic.document;rounded=0;dashed=0;strokeColor=#919191;strokeWidth=2;align=left;verticalAlign=top;spacingLeft=32;spacingTop=4;spacing=-4;fontFamily=Helvetica;fontSize=12;fontColor=default;fontStyle=0;resizable=1;fillColor=none;" vertex="1" parent="1">
          <mxGeometry x="199" y="960" width="441" height="220" as="geometry" />
        </mxCell>
        <mxCell id="mXfEpnh7-dO3a9mtvA-y-75" value="" style="shape=table;startSize=0;container=1;collapsible=0;childLayout=tableLayout;fontSize=16;rounded=0;dashed=0;strokeColor=#919191;strokeWidth=2;align=left;verticalAlign=top;spacingLeft=32;spacingTop=4;spacing=-4;fontFamily=Helvetica;fontColor=default;fontStyle=0;resizable=1;fillColor=none;" vertex="1" parent="1">
          <mxGeometry x="310" y="1000" width="290" height="130" as="geometry" />
        </mxCell>
        <mxCell id="mXfEpnh7-dO3a9mtvA-y-76" value="" style="shape=tableRow;horizontal=0;startSize=0;swimlaneHead=0;swimlaneBody=0;strokeColor=inherit;top=0;left=0;bottom=0;right=0;collapsible=0;dropTarget=0;fillColor=none;points=[[0,0.5],[1,0.5]];portConstraint=eastwest;fontSize=16;rounded=0;dashed=0;strokeWidth=2;align=left;verticalAlign=top;spacingLeft=32;spacingTop=4;spacing=-4;fontFamily=Helvetica;fontColor=default;fontStyle=0;resizable=1;" vertex="1" parent="mXfEpnh7-dO3a9mtvA-y-75">
          <mxGeometry width="290" height="50" as="geometry" />
        </mxCell>
        <mxCell id="mXfEpnh7-dO3a9mtvA-y-77" value="" style="shape=partialRectangle;html=1;whiteSpace=wrap;connectable=0;strokeColor=inherit;overflow=hidden;fillColor=none;top=0;left=0;bottom=0;right=0;pointerEvents=1;fontSize=16;rounded=0;dashed=0;strokeWidth=2;align=left;verticalAlign=top;spacingLeft=32;spacingTop=4;spacing=-4;fontFamily=Helvetica;fontColor=default;fontStyle=0;resizable=1;" vertex="1" parent="mXfEpnh7-dO3a9mtvA-y-76">
          <mxGeometry width="20" height="50" as="geometry">
            <mxRectangle width="20" height="50" as="alternateBounds" />
          </mxGeometry>
        </mxCell>
        <mxCell id="mXfEpnh7-dO3a9mtvA-y-78" value="&lt;br&gt;10.1.0.0/24&lt;div&gt;&lt;br/&gt;&lt;/div&gt;" style="shape=partialRectangle;html=1;whiteSpace=wrap;connectable=0;strokeColor=inherit;overflow=hidden;fillColor=none;top=0;left=0;bottom=0;right=0;pointerEvents=1;fontSize=16;rounded=0;dashed=0;strokeWidth=2;align=left;verticalAlign=top;spacingLeft=32;spacingTop=4;spacing=-4;fontFamily=Helvetica;fontColor=default;fontStyle=0;resizable=1;" vertex="1" parent="mXfEpnh7-dO3a9mtvA-y-76">
          <mxGeometry x="20" width="250" height="50" as="geometry">
            <mxRectangle width="250" height="50" as="alternateBounds" />
          </mxGeometry>
        </mxCell>
        <mxCell id="mXfEpnh7-dO3a9mtvA-y-79" value="" style="shape=partialRectangle;html=1;whiteSpace=wrap;connectable=0;strokeColor=inherit;overflow=hidden;fillColor=none;top=0;left=0;bottom=0;right=0;pointerEvents=1;fontSize=16;rounded=0;dashed=0;strokeWidth=2;align=left;verticalAlign=top;spacingLeft=32;spacingTop=4;spacing=-4;fontFamily=Helvetica;fontColor=default;fontStyle=0;resizable=1;" vertex="1" parent="mXfEpnh7-dO3a9mtvA-y-76">
          <mxGeometry x="270" width="20" height="50" as="geometry">
            <mxRectangle width="20" height="50" as="alternateBounds" />
          </mxGeometry>
        </mxCell>
        <mxCell id="mXfEpnh7-dO3a9mtvA-y-80" value="" style="shape=tableRow;horizontal=0;startSize=0;swimlaneHead=0;swimlaneBody=0;strokeColor=inherit;top=0;left=0;bottom=0;right=0;collapsible=0;dropTarget=0;fillColor=none;points=[[0,0.5],[1,0.5]];portConstraint=eastwest;fontSize=16;rounded=0;dashed=0;strokeWidth=2;align=left;verticalAlign=top;spacingLeft=32;spacingTop=4;spacing=-4;fontFamily=Helvetica;fontColor=default;fontStyle=0;resizable=1;" vertex="1" parent="mXfEpnh7-dO3a9mtvA-y-75">
          <mxGeometry y="50" width="290" height="40" as="geometry" />
        </mxCell>
        <mxCell id="mXfEpnh7-dO3a9mtvA-y-81" value="" style="shape=partialRectangle;html=1;whiteSpace=wrap;connectable=0;strokeColor=inherit;overflow=hidden;fillColor=none;top=0;left=0;bottom=0;right=0;pointerEvents=1;fontSize=16;rounded=0;dashed=0;strokeWidth=2;align=left;verticalAlign=top;spacingLeft=32;spacingTop=4;spacing=-4;fontFamily=Helvetica;fontColor=default;fontStyle=0;resizable=1;" vertex="1" parent="mXfEpnh7-dO3a9mtvA-y-80">
          <mxGeometry width="20" height="40" as="geometry">
            <mxRectangle width="20" height="40" as="alternateBounds" />
          </mxGeometry>
        </mxCell>
        <mxCell id="mXfEpnh7-dO3a9mtvA-y-82" value="10.1.0.0/24" style="shape=partialRectangle;html=1;whiteSpace=wrap;connectable=0;strokeColor=inherit;overflow=hidden;fillColor=none;top=0;left=0;bottom=0;right=0;pointerEvents=1;fontSize=16;rounded=0;dashed=0;strokeWidth=2;align=left;verticalAlign=top;spacingLeft=32;spacingTop=4;spacing=-4;fontFamily=Helvetica;fontColor=default;fontStyle=0;resizable=1;" vertex="1" parent="mXfEpnh7-dO3a9mtvA-y-80">
          <mxGeometry x="20" width="250" height="40" as="geometry">
            <mxRectangle width="250" height="40" as="alternateBounds" />
          </mxGeometry>
        </mxCell>
        <mxCell id="mXfEpnh7-dO3a9mtvA-y-83" value="" style="shape=partialRectangle;html=1;whiteSpace=wrap;connectable=0;strokeColor=inherit;overflow=hidden;fillColor=none;top=0;left=0;bottom=0;right=0;pointerEvents=1;fontSize=16;rounded=0;dashed=0;strokeWidth=2;align=left;verticalAlign=top;spacingLeft=32;spacingTop=4;spacing=-4;fontFamily=Helvetica;fontColor=default;fontStyle=0;resizable=1;" vertex="1" parent="mXfEpnh7-dO3a9mtvA-y-80">
          <mxGeometry x="270" width="20" height="40" as="geometry">
            <mxRectangle width="20" height="40" as="alternateBounds" />
          </mxGeometry>
        </mxCell>
        <mxCell id="mXfEpnh7-dO3a9mtvA-y-84" value="" style="shape=tableRow;horizontal=0;startSize=0;swimlaneHead=0;swimlaneBody=0;strokeColor=inherit;top=0;left=0;bottom=0;right=0;collapsible=0;dropTarget=0;fillColor=none;points=[[0,0.5],[1,0.5]];portConstraint=eastwest;fontSize=16;rounded=0;dashed=0;strokeWidth=2;align=left;verticalAlign=top;spacingLeft=32;spacingTop=4;spacing=-4;fontFamily=Helvetica;fontColor=default;fontStyle=0;resizable=1;" vertex="1" parent="mXfEpnh7-dO3a9mtvA-y-75">
          <mxGeometry y="90" width="290" height="40" as="geometry" />
        </mxCell>
        <mxCell id="mXfEpnh7-dO3a9mtvA-y-85" value="" style="shape=partialRectangle;html=1;whiteSpace=wrap;connectable=0;strokeColor=inherit;overflow=hidden;fillColor=none;top=0;left=0;bottom=0;right=0;pointerEvents=1;fontSize=16;rounded=0;dashed=0;strokeWidth=2;align=left;verticalAlign=top;spacingLeft=32;spacingTop=4;spacing=-4;fontFamily=Helvetica;fontColor=default;fontStyle=0;resizable=1;" vertex="1" parent="mXfEpnh7-dO3a9mtvA-y-84">
          <mxGeometry width="20" height="40" as="geometry">
            <mxRectangle width="20" height="40" as="alternateBounds" />
          </mxGeometry>
        </mxCell>
        <mxCell id="mXfEpnh7-dO3a9mtvA-y-86" value="10.1.0.0/24" style="shape=partialRectangle;html=1;whiteSpace=wrap;connectable=0;strokeColor=inherit;overflow=hidden;fillColor=none;top=0;left=0;bottom=0;right=0;pointerEvents=1;fontSize=16;rounded=0;dashed=0;strokeWidth=2;align=left;verticalAlign=top;spacingLeft=32;spacingTop=4;spacing=-4;fontFamily=Helvetica;fontColor=default;fontStyle=0;resizable=1;" vertex="1" parent="mXfEpnh7-dO3a9mtvA-y-84">
          <mxGeometry x="20" width="250" height="40" as="geometry">
            <mxRectangle width="250" height="40" as="alternateBounds" />
          </mxGeometry>
        </mxCell>
        <mxCell id="mXfEpnh7-dO3a9mtvA-y-87" value="" style="shape=partialRectangle;html=1;whiteSpace=wrap;connectable=0;strokeColor=inherit;overflow=hidden;fillColor=none;top=0;left=0;bottom=0;right=0;pointerEvents=1;fontSize=16;rounded=0;dashed=0;strokeWidth=2;align=left;verticalAlign=top;spacingLeft=32;spacingTop=4;spacing=-4;fontFamily=Helvetica;fontColor=default;fontStyle=0;resizable=1;" vertex="1" parent="mXfEpnh7-dO3a9mtvA-y-84">
          <mxGeometry x="270" width="20" height="40" as="geometry">
            <mxRectangle width="20" height="40" as="alternateBounds" />
          </mxGeometry>
        </mxCell>
        <mxCell id="mXfEpnh7-dO3a9mtvA-y-88" value="Private Subnets in Route Table" style="text;html=1;align=center;verticalAlign=middle;whiteSpace=wrap;rounded=0;fontFamily=Helvetica;fontSize=12;fontStyle=0;resizable=1;fillColor=#fff2cc;strokeColor=#d6b656;" vertex="1" parent="1">
          <mxGeometry x="290" y="960" width="200" height="30" as="geometry" />
        </mxCell>
        <mxCell id="mXfEpnh7-dO3a9mtvA-y-89" value="Availability zone" style="outlineConnect=0;gradientColor=none;html=1;whiteSpace=wrap;fontSize=12;fontStyle=0;shape=mxgraph.aws4.group;grIcon=mxgraph.aws4.group_availability_zone;strokeColor=#545B64;fillColor=none;verticalAlign=top;align=left;spacingLeft=30;fontColor=#545B64;dashed=1;rounded=0;strokeWidth=2;spacingTop=4;spacing=-4;fontFamily=Helvetica;resizable=1;" vertex="1" parent="1">
          <mxGeometry x="160" y="920" width="520" height="290" as="geometry" />
        </mxCell>
        <mxCell id="mXfEpnh7-dO3a9mtvA-y-90" value="" style="outlineConnect=0;fontColor=#232F3E;gradientColor=none;fillColor=#8C4FFF;strokeColor=none;dashed=0;verticalLabelPosition=bottom;verticalAlign=top;align=center;html=1;fontSize=12;fontStyle=0;aspect=fixed;pointerEvents=1;shape=mxgraph.aws4.nat_gateway;rounded=0;strokeWidth=2;spacingLeft=32;spacingTop=4;spacing=-4;fontFamily=Helvetica;resizable=1;" vertex="1" parent="1">
          <mxGeometry x="759" y="960" width="78" height="78" as="geometry" />
        </mxCell>
        <mxCell id="mXfEpnh7-dO3a9mtvA-y-91" value="NAT" style="whiteSpace=wrap;html=1;shape=mxgraph.basic.document;rounded=0;dashed=0;strokeColor=#919191;strokeWidth=2;align=left;verticalAlign=top;spacingLeft=32;spacingTop=4;spacing=-4;fontFamily=Helvetica;fontSize=12;fontColor=default;fontStyle=0;resizable=1;fillColor=none;" vertex="1" parent="1">
          <mxGeometry x="759" y="960" width="441" height="220" as="geometry" />
        </mxCell>
        <mxCell id="mXfEpnh7-dO3a9mtvA-y-92" value="" style="shape=table;startSize=0;container=1;collapsible=0;childLayout=tableLayout;fontSize=16;rounded=0;dashed=0;strokeColor=#919191;strokeWidth=2;align=left;verticalAlign=top;spacingLeft=32;spacingTop=4;spacing=-4;fontFamily=Helvetica;fontColor=default;fontStyle=0;resizable=1;fillColor=none;" vertex="1" parent="1">
          <mxGeometry x="870" y="1000" width="290" height="130" as="geometry" />
        </mxCell>
        <mxCell id="mXfEpnh7-dO3a9mtvA-y-93" value="" style="shape=tableRow;horizontal=0;startSize=0;swimlaneHead=0;swimlaneBody=0;strokeColor=inherit;top=0;left=0;bottom=0;right=0;collapsible=0;dropTarget=0;fillColor=none;points=[[0,0.5],[1,0.5]];portConstraint=eastwest;fontSize=16;rounded=0;dashed=0;strokeWidth=2;align=left;verticalAlign=top;spacingLeft=32;spacingTop=4;spacing=-4;fontFamily=Helvetica;fontColor=default;fontStyle=0;resizable=1;" vertex="1" parent="mXfEpnh7-dO3a9mtvA-y-92">
          <mxGeometry width="290" height="50" as="geometry" />
        </mxCell>
        <mxCell id="mXfEpnh7-dO3a9mtvA-y-94" value="" style="shape=partialRectangle;html=1;whiteSpace=wrap;connectable=0;strokeColor=inherit;overflow=hidden;fillColor=none;top=0;left=0;bottom=0;right=0;pointerEvents=1;fontSize=16;rounded=0;dashed=0;strokeWidth=2;align=left;verticalAlign=top;spacingLeft=32;spacingTop=4;spacing=-4;fontFamily=Helvetica;fontColor=default;fontStyle=0;resizable=1;" vertex="1" parent="mXfEpnh7-dO3a9mtvA-y-93">
          <mxGeometry width="20" height="50" as="geometry">
            <mxRectangle width="20" height="50" as="alternateBounds" />
          </mxGeometry>
        </mxCell>
        <mxCell id="mXfEpnh7-dO3a9mtvA-y-95" value="&lt;br&gt;10.1.0.0/24&lt;div&gt;&lt;br/&gt;&lt;/div&gt;" style="shape=partialRectangle;html=1;whiteSpace=wrap;connectable=0;strokeColor=inherit;overflow=hidden;fillColor=none;top=0;left=0;bottom=0;right=0;pointerEvents=1;fontSize=16;rounded=0;dashed=0;strokeWidth=2;align=left;verticalAlign=top;spacingLeft=32;spacingTop=4;spacing=-4;fontFamily=Helvetica;fontColor=default;fontStyle=0;resizable=1;" vertex="1" parent="mXfEpnh7-dO3a9mtvA-y-93">
          <mxGeometry x="20" width="250" height="50" as="geometry">
            <mxRectangle width="250" height="50" as="alternateBounds" />
          </mxGeometry>
        </mxCell>
        <mxCell id="mXfEpnh7-dO3a9mtvA-y-96" value="" style="shape=partialRectangle;html=1;whiteSpace=wrap;connectable=0;strokeColor=inherit;overflow=hidden;fillColor=none;top=0;left=0;bottom=0;right=0;pointerEvents=1;fontSize=16;rounded=0;dashed=0;strokeWidth=2;align=left;verticalAlign=top;spacingLeft=32;spacingTop=4;spacing=-4;fontFamily=Helvetica;fontColor=default;fontStyle=0;resizable=1;" vertex="1" parent="mXfEpnh7-dO3a9mtvA-y-93">
          <mxGeometry x="270" width="20" height="50" as="geometry">
            <mxRectangle width="20" height="50" as="alternateBounds" />
          </mxGeometry>
        </mxCell>
        <mxCell id="mXfEpnh7-dO3a9mtvA-y-97" value="" style="shape=tableRow;horizontal=0;startSize=0;swimlaneHead=0;swimlaneBody=0;strokeColor=inherit;top=0;left=0;bottom=0;right=0;collapsible=0;dropTarget=0;fillColor=none;points=[[0,0.5],[1,0.5]];portConstraint=eastwest;fontSize=16;rounded=0;dashed=0;strokeWidth=2;align=left;verticalAlign=top;spacingLeft=32;spacingTop=4;spacing=-4;fontFamily=Helvetica;fontColor=default;fontStyle=0;resizable=1;" vertex="1" parent="mXfEpnh7-dO3a9mtvA-y-92">
          <mxGeometry y="50" width="290" height="40" as="geometry" />
        </mxCell>
        <mxCell id="mXfEpnh7-dO3a9mtvA-y-98" value="" style="shape=partialRectangle;html=1;whiteSpace=wrap;connectable=0;strokeColor=inherit;overflow=hidden;fillColor=none;top=0;left=0;bottom=0;right=0;pointerEvents=1;fontSize=16;rounded=0;dashed=0;strokeWidth=2;align=left;verticalAlign=top;spacingLeft=32;spacingTop=4;spacing=-4;fontFamily=Helvetica;fontColor=default;fontStyle=0;resizable=1;" vertex="1" parent="mXfEpnh7-dO3a9mtvA-y-97">
          <mxGeometry width="20" height="40" as="geometry">
            <mxRectangle width="20" height="40" as="alternateBounds" />
          </mxGeometry>
        </mxCell>
        <mxCell id="mXfEpnh7-dO3a9mtvA-y-99" value="10.1.0.0/24" style="shape=partialRectangle;html=1;whiteSpace=wrap;connectable=0;strokeColor=inherit;overflow=hidden;fillColor=none;top=0;left=0;bottom=0;right=0;pointerEvents=1;fontSize=16;rounded=0;dashed=0;strokeWidth=2;align=left;verticalAlign=top;spacingLeft=32;spacingTop=4;spacing=-4;fontFamily=Helvetica;fontColor=default;fontStyle=0;resizable=1;" vertex="1" parent="mXfEpnh7-dO3a9mtvA-y-97">
          <mxGeometry x="20" width="250" height="40" as="geometry">
            <mxRectangle width="250" height="40" as="alternateBounds" />
          </mxGeometry>
        </mxCell>
        <mxCell id="mXfEpnh7-dO3a9mtvA-y-100" value="" style="shape=partialRectangle;html=1;whiteSpace=wrap;connectable=0;strokeColor=inherit;overflow=hidden;fillColor=none;top=0;left=0;bottom=0;right=0;pointerEvents=1;fontSize=16;rounded=0;dashed=0;strokeWidth=2;align=left;verticalAlign=top;spacingLeft=32;spacingTop=4;spacing=-4;fontFamily=Helvetica;fontColor=default;fontStyle=0;resizable=1;" vertex="1" parent="mXfEpnh7-dO3a9mtvA-y-97">
          <mxGeometry x="270" width="20" height="40" as="geometry">
            <mxRectangle width="20" height="40" as="alternateBounds" />
          </mxGeometry>
        </mxCell>
        <mxCell id="mXfEpnh7-dO3a9mtvA-y-101" value="" style="shape=tableRow;horizontal=0;startSize=0;swimlaneHead=0;swimlaneBody=0;strokeColor=inherit;top=0;left=0;bottom=0;right=0;collapsible=0;dropTarget=0;fillColor=none;points=[[0,0.5],[1,0.5]];portConstraint=eastwest;fontSize=16;rounded=0;dashed=0;strokeWidth=2;align=left;verticalAlign=top;spacingLeft=32;spacingTop=4;spacing=-4;fontFamily=Helvetica;fontColor=default;fontStyle=0;resizable=1;" vertex="1" parent="mXfEpnh7-dO3a9mtvA-y-92">
          <mxGeometry y="90" width="290" height="40" as="geometry" />
        </mxCell>
        <mxCell id="mXfEpnh7-dO3a9mtvA-y-102" value="" style="shape=partialRectangle;html=1;whiteSpace=wrap;connectable=0;strokeColor=inherit;overflow=hidden;fillColor=none;top=0;left=0;bottom=0;right=0;pointerEvents=1;fontSize=16;rounded=0;dashed=0;strokeWidth=2;align=left;verticalAlign=top;spacingLeft=32;spacingTop=4;spacing=-4;fontFamily=Helvetica;fontColor=default;fontStyle=0;resizable=1;" vertex="1" parent="mXfEpnh7-dO3a9mtvA-y-101">
          <mxGeometry width="20" height="40" as="geometry">
            <mxRectangle width="20" height="40" as="alternateBounds" />
          </mxGeometry>
        </mxCell>
        <mxCell id="mXfEpnh7-dO3a9mtvA-y-103" value="10.1.0.0/24" style="shape=partialRectangle;html=1;whiteSpace=wrap;connectable=0;strokeColor=inherit;overflow=hidden;fillColor=none;top=0;left=0;bottom=0;right=0;pointerEvents=1;fontSize=16;rounded=0;dashed=0;strokeWidth=2;align=left;verticalAlign=top;spacingLeft=32;spacingTop=4;spacing=-4;fontFamily=Helvetica;fontColor=default;fontStyle=0;resizable=1;" vertex="1" parent="mXfEpnh7-dO3a9mtvA-y-101">
          <mxGeometry x="20" width="250" height="40" as="geometry">
            <mxRectangle width="250" height="40" as="alternateBounds" />
          </mxGeometry>
        </mxCell>
        <mxCell id="mXfEpnh7-dO3a9mtvA-y-104" value="" style="shape=partialRectangle;html=1;whiteSpace=wrap;connectable=0;strokeColor=inherit;overflow=hidden;fillColor=none;top=0;left=0;bottom=0;right=0;pointerEvents=1;fontSize=16;rounded=0;dashed=0;strokeWidth=2;align=left;verticalAlign=top;spacingLeft=32;spacingTop=4;spacing=-4;fontFamily=Helvetica;fontColor=default;fontStyle=0;resizable=1;" vertex="1" parent="mXfEpnh7-dO3a9mtvA-y-101">
          <mxGeometry x="270" width="20" height="40" as="geometry">
            <mxRectangle width="20" height="40" as="alternateBounds" />
          </mxGeometry>
        </mxCell>
        <mxCell id="mXfEpnh7-dO3a9mtvA-y-105" value="Private Subnets in Route Table" style="text;html=1;align=center;verticalAlign=middle;whiteSpace=wrap;rounded=0;fontFamily=Helvetica;fontSize=12;fontStyle=0;resizable=1;fillColor=#fff2cc;strokeColor=#d6b656;" vertex="1" parent="1">
          <mxGeometry x="850" y="960" width="200" height="30" as="geometry" />
        </mxCell>
        <mxCell id="mXfEpnh7-dO3a9mtvA-y-106" value="Availability zone" style="outlineConnect=0;gradientColor=none;html=1;whiteSpace=wrap;fontSize=12;fontStyle=0;shape=mxgraph.aws4.group;grIcon=mxgraph.aws4.group_availability_zone;strokeColor=#545B64;fillColor=none;verticalAlign=top;align=left;spacingLeft=30;fontColor=#545B64;dashed=1;rounded=0;strokeWidth=2;spacingTop=4;spacing=-4;fontFamily=Helvetica;resizable=1;" vertex="1" parent="1">
          <mxGeometry x="720" y="920" width="520" height="290" as="geometry" />
        </mxCell>
        <mxCell id="mXfEpnh7-dO3a9mtvA-y-108" value="Region" style="points=[[0,0],[0.25,0],[0.5,0],[0.75,0],[1,0],[1,0.25],[1,0.5],[1,0.75],[1,1],[0.75,1],[0.5,1],[0.25,1],[0,1],[0,0.75],[0,0.5],[0,0.25]];outlineConnect=0;gradientColor=none;html=1;whiteSpace=wrap;fontSize=12;fontStyle=0;container=1;pointerEvents=0;collapsible=0;recursiveResize=0;shape=mxgraph.aws4.group;grIcon=mxgraph.aws4.group_region;strokeColor=#0000FF;fillColor=none;verticalAlign=top;align=left;spacingLeft=30;fontColor=#147EBA;" vertex="1" parent="1">
          <mxGeometry x="120" y="880" width="1160" height="360" as="geometry" />
        </mxCell>
      </root>
    </mxGraphModel>
  </diagram>
</mxfile>
